<svg data-v-0dd9719b="" version="1.0" xmlns="http://www.w3.org/2000/svg" xmlns:xlink="http://www.w3.org/1999/xlink" width="100%" height="100%" viewBox="0 0 340.000000 250.000000" preserveAspectRatio="xMidYMid meet" color-interpolation-filters="sRGB" style="margin:auto"><rect data-v-0dd9719b="" x="0" y="0" width="100%" height="100%" fill="#fff" fill-opacity="0" class="background"></rect><rect data-v-0dd9719b="" x="0" y="0" width="100%" height="100%" fill="url(#watermark)" fill-opacity="1" class="watermarklayer"></rect><g data-v-0dd9719b="" fill="#f75f0b" class="icon-text-wrapper icon-svg-group iconsvg" transform="translate(82.13500213623047,77.71999740600586)"><g class="iconsvg-imagesvg" transform="matrix(1,0,0,1,57.86499786376953,0)" opacity="1"><g><rect fill="#f75f0b" fill-opacity="0" stroke-width="2" x="0" y="0" width="60" height="60" class="image-rect"></rect><svg x="0" y="0" width="60" height="60" filtersec="colorsb3079003721" class="image-svg-svg primary" style="overflow:visible"><svg xmlns="http://www.w3.org/2000/svg" viewBox="2.489999771118164 2.3499999046325684 80.00000762939453 80"><path fill="#F75F0B" d="M22.49 15.68V2.35h-20v6.67h13.33v13.33h20v-6.67zM62.49 55.68V42.35h-20v6.67h13.33v13.33h13.34v-6.67zM49.16 22.35h13.33v-20h-6.67v13.33H42.49v20h6.67z"></path><path fill="#F75F0B" d="M9.16 29.02V15.68H2.49v20h20v-6.66zM29.16 2.35h20v6.67h-20zM69.16 2.35h13.33v6.67H69.16zM75.82 29.02V15.68h-6.66v13.34H55.82v6.66h26.67v-6.66zM69.16 42.35v6.67h6.66v13.33h6.67v-20zM35.82 69.02h-6.66v6.66H15.82v6.67h20zM29.16 42.35H15.83v6.67h19.99v-20h-6.66z"></path><path fill="#F75F0B" d="M22.49 69.02V55.68H9.16V42.35H2.49v40h6.67v-20h6.66v6.67zM29.16 55.68v6.67h13.33v20h6.67V55.68zM55.82 69.02v6.67h20v6.66h6.67V69.02z"></path></svg></svg></g></g><g transform="translate(0,67)"><g data-gra="path-name" fill-rule="" class="tp-name iconsvg-namesvg" opacity="1" transform="matrix(1,0,0,1,0,0)"><g transform="scale(1)"></g></g></g></g><defs v-gra="od"></defs></svg>