<svg data-v-0dd9719b="" version="1.0" xmlns="http://www.w3.org/2000/svg" xmlns:xlink="http://www.w3.org/1999/xlink" width="100%" height="100%" viewBox="0 0 340.000000 250.000000" preserveAspectRatio="xMidYMid meet" color-interpolation-filters="sRGB" style="margin: auto;"> <rect data-v-0dd9719b="" x="0" y="0" width="100%" height="100%" fill="#fff" fill-opacity="0" class="background"></rect> <rect data-v-0dd9719b="" x="0" y="0" width="100%" height="100%" fill="url(#watermark)" fill-opacity="1" class="watermarklayer"></rect> <g data-v-0dd9719b="" fill="#f75f0b" class="icon-text-wrapper icon-svg-group iconsvg" transform="translate(82.13500213623047,77.71999740600586)"><g class="iconsvg-imagesvg" transform="matrix(1,0,0,1,57.86499786376953,0)" opacity="1"><g><rect fill="#f75f0b" fill-opacity="0" stroke-width="2" x="0" y="0" width="60" height="60" class="image-rect"></rect> <svg x="0" y="0" width="60" height="60" filtersec="colorsb3079003721" class="image-svg-svg primary" style="overflow: visible;"><svg xmlns="http://www.w3.org/2000/svg" viewBox="2.489999771118164 2.3499999046325684 80.00000762939453 80"><path fill="#F75F0B" d="M22.49 15.68V2.35h-20v6.67h13.33v13.33h20v-6.67zM62.49 55.68V42.35h-20v6.67h13.33v13.33h13.34v-6.67zM49.16 22.35h13.33v-20h-6.67v13.33H42.49v20h6.67z"></path><path fill="#F75F0B" d="M9.16 29.02V15.68H2.49v20h20v-6.66zM29.16 2.35h20v6.67h-20zM69.16 2.35h13.33v6.67H69.16zM75.82 29.02V15.68h-6.66v13.34H55.82v6.66h26.67v-6.66zM69.16 42.35v6.67h6.66v13.33h6.67v-20zM35.82 69.02h-6.66v6.66H15.82v6.67h20zM29.16 42.35H15.83v6.67h19.99v-20h-6.66z"></path><path fill="#F75F0B" d="M22.49 69.02V55.68H9.16V42.35H2.49v40h6.67v-20h6.66v6.67zM29.16 55.68v6.67h13.33v20h6.67V55.68zM55.82 69.02v6.67h20v6.66h6.67V69.02z"></path></svg></svg> <!----></g></g> <g transform="translate(0,67)"><g data-gra="path-name" fill-rule="" class="tp-name iconsvg-namesvg" opacity="1" transform="matrix(1,0,0,1,0,0)"><g transform="scale(1)"><g><path d="M17.47-1.81L8.93-11.21 8.93-0.04Q8.54 0.09 7.83 0.19 7.12 0.3 6.3 0.3L6.3 0.3Q4.66 0.3 3.99-0.28 3.32-0.86 3.32-2.33L3.32-2.33 3.32-26.18Q3.67-26.26 4.42-26.39 5.17-26.52 5.91-26.52L5.91-26.52Q7.46-26.52 8.19-25.96 8.93-25.4 8.93-23.89L8.93-23.89 8.93-15.01 19.28-26.39Q21.35-26.39 22.27-25.57 23.2-24.75 23.2-23.63L23.2-23.63Q23.2-22.73 22.75-22.01 22.3-21.3 21.39-20.4L21.39-20.4 14.1-13.15Q17.47-9.7 20.01-6.99 22.55-4.27 24.32-2.63L24.32-2.63Q24.28-1.21 23.39-0.41 22.51 0.39 21.26 0.39L21.26 0.39Q20.01 0.39 19.15-0.28 18.28-0.95 17.47-1.81L17.47-1.81ZM46.06-13.2L46.06-13.2Q46.06-15.52 45.41-17.23 44.76-18.93 43.62-20.03 42.48-21.13 40.9-21.67 39.33-22.21 37.47-22.21L37.47-22.21Q36.48-22.21 35.69-22.14 34.89-22.08 34.15-21.99L34.15-21.99 34.15-4.27Q34.89-4.1 35.81-4.03 36.74-3.97 37.65-3.97L37.65-3.97Q41.66-3.97 43.86-6.3 46.06-8.62 46.06-13.2ZM51.79-13.24L51.79-13.24Q51.79-9.75 50.78-7.14 49.77-4.53 47.91-2.82 46.06-1.12 43.45-0.26 40.84 0.6 37.65 0.6L37.65 0.6Q36.91 0.6 36.05 0.58 35.19 0.56 34.26 0.45 33.33 0.34 32.41 0.17 31.48 0 30.66-0.3L30.66-0.3Q28.59-1.08 28.59-2.89L28.59-2.89 28.59-24.02Q28.59-24.8 29.02-25.23 29.45-25.66 30.23-25.92L30.23-25.92Q31.83-26.48 33.7-26.63 35.58-26.78 37.26-26.78L37.26-26.78Q40.49-26.78 43.19-25.94 45.88-25.1 47.78-23.42 49.68-21.73 50.74-19.19 51.79-16.65 51.79-13.24ZM59.99 0.09L59.99 0.09Q58.61 0.09 57.81-0.73 57.01-1.55 57.01-2.93L57.01-2.93 57.01-26.18Q57.36-26.26 58.11-26.39 58.86-26.52 59.6-26.52L59.6-26.52Q61.15-26.52 61.88-25.96 62.62-25.4 62.62-23.89L62.62-23.89 62.62-4.53 73.7-4.53Q73.91-4.18 74.13-3.6 74.35-3.02 74.35-2.33L74.35-2.33Q74.35-1.16 73.81-0.54 73.27 0.09 72.32 0.09L72.32 0.09 59.99 0.09ZM84.48-0.04L84.48-0.04Q84.09 0.04 83.38 0.17 82.67 0.3 81.85 0.3L81.85 0.3Q80.21 0.3 79.54-0.3 78.87-0.91 78.87-2.33L78.87-2.33 78.87-26.18Q79.22-26.26 79.97-26.39 80.73-26.52 81.46-26.52L81.46-26.52Q83.01-26.52 83.75-25.96 84.48-25.4 84.48-23.89L84.48-23.89 84.48-15.4 95.26-15.4 95.26-26.18Q95.61-26.26 96.36-26.39 97.12-26.52 97.85-26.52L97.85-26.52Q99.4-26.52 100.13-25.94 100.87-25.36 100.87-23.85L100.87-23.85 100.87-0.04Q100.48 0.04 99.77 0.17 99.06 0.3 98.24 0.3L98.24 0.3Q96.6 0.3 95.93-0.3 95.26-0.91 95.26-2.33L95.26-2.33 95.26-10.91 84.48-10.91 84.48-0.04ZM132.26-13.11L132.26-13.11Q132.26-9.75 131.27-7.16 130.28-4.57 128.53-2.82 126.78-1.08 124.37-0.19 121.95 0.69 119.15 0.69L119.15 0.69Q116.35 0.69 113.93-0.19 111.52-1.08 109.77-2.82 108.03-4.57 107.03-7.16 106.04-9.75 106.04-13.11L106.04-13.11Q106.04-16.47 107.06-19.04 108.07-21.61 109.84-23.35 111.61-25.1 114-25.98 116.39-26.87 119.15-26.87L119.15-26.87Q121.91-26.87 124.31-25.98 126.7-25.1 128.47-23.35 130.23-21.61 131.25-19.04 132.26-16.47 132.26-13.11ZM126.53-13.11L126.53-13.11Q126.53-17.59 124.52-19.94 122.52-22.3 119.15-22.3L119.15-22.3Q115.83-22.3 113.83-19.97 111.82-17.64 111.82-13.11L111.82-13.11Q111.82-8.58 113.8-6.25 115.79-3.92 119.15-3.92L119.15-3.92Q122.52-3.92 124.52-6.25 126.53-8.58 126.53-13.11ZM145.11-3.92L145.11-3.92Q147.61-3.92 148.78-4.89 149.94-5.86 149.94-7.33L149.94-7.33Q149.94-8.67 149.04-9.47 148.13-10.26 146.28-10.82L146.28-10.82 143.52-11.69Q141.88-12.2 140.54-12.85 139.2-13.5 138.26-14.38 137.31-15.27 136.79-16.45 136.27-17.64 136.27-19.28L136.27-19.28Q136.27-22.77 138.9-24.82 141.53-26.87 146.1-26.87L146.1-26.87Q147.92-26.87 149.45-26.59 150.98-26.31 152.1-25.81 153.22-25.31 153.85-24.58 154.47-23.85 154.47-22.94L154.47-22.94Q154.47-22.08 154.06-21.45 153.65-20.83 153.05-20.44L153.05-20.44Q152.01-21.17 150.31-21.71 148.61-22.25 146.58-22.25L146.58-22.25Q144.34-22.25 143.17-21.45 142.01-20.66 142.01-19.28L142.01-19.28Q142.01-18.16 142.81-17.55 143.6-16.95 145.33-16.39L145.33-16.39 147.79-15.61Q151.54-14.49 153.61-12.55 155.68-10.61 155.68-7.29L155.68-7.29Q155.68-5.52 154.99-4.05 154.3-2.59 152.98-1.53 151.67-0.47 149.71 0.11 147.74 0.69 145.24 0.69L145.24 0.69Q143.26 0.69 141.6 0.34 139.94 0 138.73-0.58 137.52-1.16 136.85-1.96 136.19-2.76 136.19-3.71L136.19-3.71Q136.19-4.7 136.77-5.41 137.35-6.12 138.13-6.47L138.13-6.47Q139.2-5.52 140.97-4.72 142.74-3.92 145.11-3.92ZM178.45-26.18L178.45-26.18Q178.66-25.83 178.86-25.25 179.05-24.67 179.05-23.98L179.05-23.98Q179.05-22.81 178.51-22.21 177.97-21.61 177.02-21.61L177.02-21.61 171.07-21.61 171.07-0.04Q170.73 0.04 170 0.17 169.26 0.3 168.49 0.3L168.49 0.3Q166.85 0.3 166.16-0.3 165.47-0.91 165.47-2.33L165.47-2.33 165.47-21.61 158.22-21.61Q158.01-21.99 157.81-22.55 157.62-23.11 157.62-23.8L157.62-23.8Q157.62-25.01 158.16-25.59 158.7-26.18 159.65-26.18L159.65-26.18 178.45-26.18Z" transform="translate(-3.319999933242798, 26.8700008392334)"></path></g> <!----> <!----> <!----> <!----> <!----> <!----> <!----></g></g> <!----></g></g><defs v-gra="od"></defs></svg>